<?xml version="1.0" encoding="UTF-8" standalone="no"?>
<!-- Created with Inkscape (http://www.inkscape.org/) -->
<svg xmlns:dc="http://purl.org/dc/elements/1.1/" xmlns:cc="http://creativecommons.org/ns#" xmlns:rdf="http://www.w3.org/1999/02/22-rdf-syntax-ns#" xmlns:svg="http://www.w3.org/2000/svg" xmlns="http://www.w3.org/2000/svg" xmlns:sodipodi="http://sodipodi.sourceforge.net/DTD/sodipodi-0.dtd" xmlns:inkscape="http://www.inkscape.org/namespaces/inkscape" width="141.11111mm" height="141.11111mm" viewBox="0 0 500.00001 500.00001" id="svg13894" version="1.1" inkscape:version="0.91 r13725" sodipodi:docname="N2i_logo-white.svg" inkscape:export-filename="/Users/celineauzias/Dropbox/artwork/N2I/logo/2018/N2i_logo-white.png" inkscape:export-xdpi="108" inkscape:export-ydpi="108">
  <defs id="defs13896"/>
  <sodipodi:namedview id="base" pagecolor="#ffffff" bordercolor="#666666" borderopacity="1.0" inkscape:pageopacity="0.0" inkscape:pageshadow="2" inkscape:zoom="0.49497475" inkscape:cx="146.59232" inkscape:cy="-105.94282" inkscape:document-units="px" inkscape:current-layer="layer1" showgrid="false" inkscape:window-width="1440" inkscape:window-height="856" inkscape:window-x="172" inkscape:window-y="221" inkscape:window-maximized="0" inkscape:snap-global="false" fit-margin-top="0" fit-margin-left="0" fit-margin-right="0" fit-margin-bottom="0">
    <inkscape:grid type="xygrid" id="grid13847" originx="-216.75763" originy="-744.49768"/>
  </sodipodi:namedview>
  <metadata id="metadata13899">
    <rdf:RDF>
      <cc:Work rdf:about="">
        <dc:format>image/svg+xml</dc:format>
        <dc:type rdf:resource="http://purl.org/dc/dcmitype/StillImage"/>
        <dc:title/>
      </cc:Work>
    </rdf:RDF>
  </metadata>
  <g inkscape:label="Calque 1" inkscape:groupmode="layer" id="layer1" transform="translate(-216.75763,192.13545)">
    <g id="g5250" transform="matrix(6.25,0,0,6.25,-1137.9776,-1616.2889)">
      <path inkscape:connector-curvature="0" id="path13688" d="m 252.1307,232.79423 a 2.3936493,4.9806925 80.416557 0 0 -0.0859,0.002 2.3936493,4.9806925 80.416557 0 0 -1.46875,0.13867 2.3936493,4.9806925 80.416557 0 0 -4.49805,2.69336 c -0.0511,0.1155 -0.0707,0.24617 -0.0488,0.38086 l 0.35156,2.17578 c 0.0594,0.36652 0.40019,0.61457 0.76368,0.55469 l 2.10351,-0.34766 0.58984,3.64063 c -2.75501,0.74941 -5.2861,2.00661 -7.47461,3.66015 l -1.22265,-1.49609 1.0332,-0.85938 c 0.18661,-0.15501 0.21426,-0.43097 0.0605,-0.61914 l -1.34765,-1.65039 c -0.0961,-0.1176 -0.23958,-0.17169 -0.37891,-0.1582 -0.0836,0.008 -0.16634,0.0395 -0.23633,0.0977 l -4.33008,3.59766 c -0.1866,0.15501 -0.21426,0.43097 -0.0606,0.61914 l 1.34961,1.65039 c 0.15373,0.18816 0.42668,0.2136 0.61329,0.0586 l 1.03515,-0.85742 1.26367,1.54687 c -3.71751,3.70961 -6.00195,8.73798 -6.00195,14.27539 0,11.40365 9.69127,20.66016 21.63281,20.66016 8.12332,0 15.2019,-4.28277 18.90039,-10.61133 -23.61306,8.03946 -34.78462,-20.22671 -20.51757,-30.57812 l 0.0937,-0.0156 -0.008,-0.0488 c 0.005,-0.004 0.0104,-0.008 0.0156,-0.0117 -0.006,0 -0.0118,0.001 -0.0176,0.002 l -0.58791,-3.627 2.01563,-0.33203 c 0.36348,-0.0599 0.60819,-0.40302 0.54882,-0.76953 l -0.33984,-2.0957 0.002,0 a 2.3936493,4.9806925 80.416557 0 0 -0.004,-0.0137 l -0.0117,-0.0664 c -0.0162,-0.0994 -0.0532,-0.18948 -0.10552,-0.26758 a 2.3936493,4.9806925 80.416557 0 0 -3.62695,-1.32812 z m -1.13672,0.48633 c 0.0164,0.001 0.0281,0.004 0.0371,0.008 -1.31697,0.35891 -3.69572,1.7461 -4.09961,2.49023 -0.328,0.60431 -0.32617,1.47461 -0.32617,1.47461 0,0 -0.13382,-0.76959 -0.0996,-1.46094 0.0576,-1.164 3.981,-2.54889 4.48828,-2.51172 z m -6.50391,12.22851 c 0.83242,0.0232 1.47703,1.03903 1.44336,2.27344 -0.0336,1.23438 -0.73397,2.22241 -1.56641,2.19922 -0.8324,-0.0229 -1.477,-1.04883 -1.44335,-2.28321 0.0336,-1.23439 0.73399,-2.21236 1.5664,-2.18945 z m 11.61524,0.30078 -0.0859,0.0879 -0.49415,0.49805 0,1.33008 0.35157,0.35351 0.22851,-0.23242 0,-2.03711 z m -0.22852,2.30469 -0.0371,0.0352 -0.31445,0.31836 0,1.33008 0.58008,0.58398 0,-2.0293 -0.22852,-0.23828 z m 5.0625,2.74219 0.084,0.0879 0.47852,0.48828 1.5664,0 0.56446,-0.57617 -2.69336,0 z m 2.71094,0.0156 -0.0879,0.0879 -0.47852,0.49023 0,1.30664 0.3457,0.34766 0.22071,-0.22852 0,-2.0039 z m -2.72852,0.002 0,0.12304 0,1.87891 0.22461,0.22852 0.3457,-0.34766 0,-1.30664 -0.57031,-0.57617 z m -18.23828,1.04297 c 0.98785,0.0273 1.75671,1.23834 1.7168,2.70312 -0.0399,1.4648 -0.87352,2.62889 -1.86133,2.60156 -0.98776,-0.0273 -1.75479,-1.23638 -1.71484,-2.70117 0.0399,-1.46476 0.87161,-2.63085 1.85937,-2.60351 z m 18.46289,1.21875 -0.0352,0.0391 -0.18945,0.19726 0,1.99609 0.57031,-0.57617 0,-1.30664 -0.3457,-0.34961 z m 2.28516,0 -0.0371,0.0371 -0.31055,0.3125 0,1.30664 0.56641,0.57812 0,-1.99805 -0.21875,-0.23632 z m -1.92969,1.67382 -0.0137,0.0156 -0.55078,0.56055 2.69531,0 -0.56445,-0.57617 -1.56641,0 z m -25.01758,2.30079 c 0.50301,4.32914 2.23768,8.50693 4.94336,11.90625 -0.57029,0.41848 -0.9982,1.00426 -1.13281,1.7207 -0.18621,0.99126 0.24029,1.94668 0.94141,2.65234 0.70116,0.70564 1.6873,1.21366 2.82812,1.43164 1.14087,0.21784 2.24382,0.10903 3.15234,-0.28906 0.10294,-0.045 0.20639,-0.0927 0.30469,-0.14648 1.01967,0.62527 2.09236,1.17153 3.19531,1.63086 -0.0372,-0.16569 -0.0522,-0.32459 -0.0215,-0.48829 0.22,-1.17092 2.18836,-1.78783 4.39063,-1.36718 2.20217,0.42063 3.80984,1.71969 3.58984,2.89062 -0.0479,0.25507 -0.18301,0.48284 -0.38086,0.67969 2.92334,0.13831 5.8707,-0.28491 8.63868,-1.24414 -4.26634,3.65838 -10.20197,5.25213 -15.70704,4.21484 -4.85875,-0.92812 -9.30109,-3.87353 -12.08593,-7.99414 -2.78479,-4.12064 -3.87729,-9.36626 -2.95703,-14.26562 0.0844,-0.44738 0.18489,-0.89195 0.30078,-1.33203 z m 33.07422,1.02539 -0.0879,0.0879 -0.67187,0.67773 0,1.8125 0.46289,0.4668 0.29687,-0.29883 0,-2.74609 z m -11.92969,3.09765 0.0859,0.0879 0.75586,0.77344 2.47852,0 0.8418,-0.86133 -4.16211,0 z m 11.63282,0.0488 -0.0352,0.0371 -0.42774,0.42969 0,1.8125 0.75977,0.76563 0,-2.73633 -0.29688,-0.3086 z m -7.40039,0.0195 -0.0879,0.0879 -0.75586,0.77344 0,2.06445 0.52343,0.52539 0.32032,-0.33398 0,-3.11719 z m -4.30274,0.002 0,0.12305 0,2.99219 0.33203,0.33398 0.52149,-0.52539 0,-2.06445 -0.85352,-0.85938 z m 3.98242,3.58594 -0.0371,0.0371 -0.48632,0.49024 0,2.06445 0.84375,0.86133 0,-3.10547 -0.32032,-0.34766 z m -3.65039,0.002 -0.0371,0.0371 -0.29492,0.30859 0,3.10547 0.85352,-0.86132 0,-2.06446 -0.52149,-0.52539 z m 0.58008,2.66016 -0.0137,0.0137 -0.82812,0.8457 4.16211,0 -0.8418,-0.85937 -2.47852,0 z m -13.61523,1.57812 c 0.29321,-0.006 0.59746,0.0188 0.9082,0.0781 1.6572,0.31654 2.82867,1.49064 2.61523,2.62696 -0.21349,1.13634 -1.72952,1.79898 -3.38672,1.48242 -1.65722,-0.31655 -2.82872,-1.49258 -2.61523,-2.62891 0.17345,-0.92326 1.20797,-1.53209 2.47852,-1.55859 z" style="opacity:1;fill:#ffffff;fill-opacity:1;fill-rule:nonzero;stroke:none;stroke-width:9.02935505;stroke-linecap:round;stroke-linejoin:round;stroke-miterlimit:4;stroke-dasharray:none;stroke-dashoffset:0;stroke-opacity:1"/>
      <path inkscape:connector-curvature="0" style="font-style:normal;font-variant:normal;font-weight:normal;font-stretch:normal;font-size:medium;line-height:100%;font-family:DS-Digital;-inkscape-font-specification:DS-Digital;text-align:start;writing-mode:lr-tb;text-anchor:start;fill:#ffffff;fill-opacity:1;stroke:none;stroke-width:0.95354259;stroke-miterlimit:4;stroke-dasharray:none;stroke-opacity:1" d="m 256.40423,240.51246 a 0.80277414,0.80948044 0 0 0 -0.80273,0.80962 0.80277414,0.80948044 0 0 0 0.80273,0.80945 0.80277414,0.80948044 0 0 0 0.80293,-0.80945 0.80277414,0.80948044 0 0 0 -0.80293,-0.80962 z m 3.9707,0.48525 a 0.80277414,0.80948044 0 0 0 -0.80273,0.80944 0.80277414,0.80948044 0 0 0 0.80273,0.80944 0.80277414,0.80948044 0 0 0 0.80272,-0.80944 0.80277414,0.80948044 0 0 0 -0.80272,-0.80944 z m 3.83311,0.9823 a 0.80277414,0.80948044 0 0 0 -0.80274,0.80945 0.80277414,0.80948044 0 0 0 0.80274,0.80943 0.80277414,0.80948044 0 0 0 0.80273,-0.80943 0.80277414,0.80948044 0 0 0 -0.80273,-0.80945 z m 4.26644,0.31061 c -0.16323,0.007 -0.32186,0.0858 -0.42819,0.22836 l -2.52953,3.39164 c -0.18902,0.25343 -0.1389,0.61085 0.11243,0.80145 l 0.54518,0.41361 c 0.25134,0.19059 0.6058,0.14004 0.79482,-0.11339 l 2.52974,-3.39164 c 0.18901,-0.25343 0.13888,-0.61106 -0.11245,-0.80166 l -0.54537,-0.4134 c -0.10997,-0.0834 -0.23967,-0.12071 -0.36663,-0.11497 z m 2.175,4.09388 c -0.44332,3e-5 -0.8027,0.36242 -0.80273,0.80945 3e-5,0.44702 0.35941,0.8094 0.80273,0.80943 0.44333,-2e-5 0.80269,-0.3624 0.80272,-0.80943 -3e-5,-0.44704 -0.35939,-0.80943 -0.80272,-0.80945 z m 2.64079,2.85609 a 0.80277414,0.80948044 0 0 0 -0.80273,0.80944 0.80277414,0.80948044 0 0 0 0.80273,0.80943 0.80277414,0.80948044 0 0 0 0.80293,-0.80943 0.80277414,0.80948044 0 0 0 -0.80293,-0.80944 z m 2.08848,3.76273 a 0.80277414,0.80948044 0 0 0 -0.80273,0.80944 0.80277414,0.80948044 0 0 0 0.80273,0.80943 0.80277414,0.80948044 0 0 0 0.80274,-0.80943 0.80277414,0.80948044 0 0 0 -0.80274,-0.80944 z m 3.31228,3.51481 c -0.0378,-9.6e-4 -0.0762,0.003 -0.11482,0.01 l -4.13579,0.78568 c -0.30904,0.0587 -0.51096,0.35689 -0.45274,0.66852 l 0.1263,0.67609 c 0.0582,0.31162 0.35393,0.51522 0.66297,0.45652 l 4.13579,-0.78569 c 0.30905,-0.0587 0.51097,-0.35689 0.45274,-0.6685 l -0.1263,-0.67611 c -0.0509,-0.27266 -0.28373,-0.46258 -0.54815,-0.46649 z m -1.60151,4.40509 a 0.80277414,0.80948044 0 0 0 -0.80272,0.80944 0.80277414,0.80948044 0 0 0 0.80272,0.80943 0.80277414,0.80948044 0 0 0 0.80293,-0.80943 0.80277414,0.80948044 0 0 0 -0.80293,-0.80944 z m -0.31079,3.92222 a 0.80277414,0.80948044 0 0 0 -0.80273,0.80943 0.80277414,0.80948044 0 0 0 0.80273,0.80945 0.80277414,0.80948044 0 0 0 0.80293,-0.80945 0.80277414,0.80948044 0 0 0 -0.80293,-0.80943 z m -1.26873,3.9346 a 0.80277414,0.80948044 0 0 0 -0.80273,0.80944 0.80277414,0.80948044 0 0 0 0.80273,0.80943 0.80277414,0.80948044 0 0 0 0.80273,-0.80943 0.80277414,0.80948044 0 0 0 -0.80273,-0.80944 z" id="path13692"/>
      <path id="path13632" transform="translate(216.75763,227.86455)" d="m 61.726562,57.054688 0,1.5625 0.824219,0 0,-1.5625 -0.824219,0 z m -44.320312,0.08984 0,4.951172 3.607422,0 0,-0.84375 -2.611328,0 0,-4.107422 -0.996094,0 z m 5.671875,0 -1.955078,4.951172 1.023437,0 0.470704,-1.234375 1.789062,0 0.476562,1.234375 1.023438,0 -1.947266,-4.951172 -0.880859,0 z m 4.898437,0 0,4.951172 0.996094,0 0,-3.171875 2.634766,3.171875 0.808594,0 0,-4.943359 -0.996094,0 0,3.242187 -2.669922,-3.25 -0.773438,0 z m 5.439454,0 0,2.525391 c 0,0.320673 0.03825,0.628341 0.115234,0.925781 0.08179,0.297453 0.212605,0.561336 0.390625,0.789063 0.17802,0.223086 0.409499,0.403548 0.693359,0.542968 0.28868,0.13478 0.635956,0.203125 1.044922,0.203125 0.394527,0 0.733705,-0.06518 1.017578,-0.195312 0.28386,-0.130127 0.515333,-0.308163 0.69336,-0.53125 0.182833,-0.22308 0.314697,-0.481857 0.396484,-0.779297 0.0866,-0.29744 0.13086,-0.615805 0.13086,-0.955078 l 0,-2.525391 -0.988282,0 0,2.525391 c 0,0.204487 -0.02119,0.404409 -0.06445,0.599609 -0.03849,0.190547 -0.109897,0.359086 -0.210937,0.507813 -0.09622,0.148713 -0.225086,0.270328 -0.388672,0.363281 -0.15878,0.09295 -0.356044,0.138672 -0.591797,0.138672 -0.23094,0 -0.427164,-0.04452 -0.585938,-0.132813 -0.158773,-0.09296 -0.287632,-0.212614 -0.388671,-0.361328 -0.09626,-0.148726 -0.165718,-0.319219 -0.208985,-0.509765 -0.03847,-0.1952 -0.05859,-0.396336 -0.05859,-0.605469 l 0,-2.525391 -0.996093,0 z m 5.486328,0 0,4.951172 0.996094,0 0,-4.951172 -0.996094,0 z m 1.625,0 0,0.84375 1.636718,0 0,4.107422 0.990235,0 0,-4.107422 1.636719,0 0,-0.84375 -4.263672,0 z m 6.4375,0 0,4.951172 1.861328,0 c 0.384907,0 0.731136,-0.05959 1.039062,-0.175781 0.312734,-0.120833 0.579462,-0.28816 0.800782,-0.501953 0.22132,-0.218434 0.390386,-0.47721 0.505859,-0.779297 0.120287,-0.306733 0.179687,-0.648931 0.179687,-1.025391 0,-0.339266 -0.05235,-0.657638 -0.158203,-0.955078 -0.105853,-0.3021 -0.264869,-0.564036 -0.476562,-0.787109 -0.2117,-0.223087 -0.475429,-0.401117 -0.792969,-0.53125 -0.312747,-0.130127 -0.679076,-0.195313 -1.097656,-0.195313 l -1.861328,0 z m 5.158203,0 0,4.951172 3.558594,0 0,-0.84375 -2.5625,0 0,-1.291015 2.158203,0 0,-0.779297 -2.158203,0 0,-1.19336 2.498047,0 0,-0.84375 -3.494141,0 z m 6.076172,0 0,4.951172 3.607422,0 0,-0.84375 -2.611329,0 0,-4.107422 -0.996093,0 z m -10.238281,0.84375 0.865234,0 c 0.240567,0 0.454938,0.04014 0.642578,0.119141 0.192453,0.07901 0.352515,0.189911 0.482422,0.333984 0.129907,0.14408 0.229522,0.315785 0.296875,0.515625 0.06736,0.199847 0.101562,0.41923 0.101562,0.65625 0,0.23238 -0.0342,0.448591 -0.101562,0.648438 -0.06735,0.19984 -0.166968,0.374711 -0.296875,0.523437 -0.125093,0.144067 -0.282156,0.258137 -0.47461,0.341797 -0.187646,0.08365 -0.405017,0.125 -0.65039,0.125 l -0.865234,0 0,-3.263672 z m -24.44336,0.251953 0.708984,1.945313 -1.445312,0 0.736328,-1.945313 z m 32.859375,5.085938 c -0.139927,0 -0.360309,0.004 -0.660156,0.01367 -0.299847,0.0096 -0.6341,0.02959 -1.003906,0.05859 -0.369814,0.01933 -0.760136,0.04734 -1.169922,0.08594 -0.409787,0.02897 -0.794484,0.06892 -1.154297,0.117187 -0.35982,0.03862 -0.673506,0.0866 -0.94336,0.144532 -0.269859,0.05793 -0.454727,0.11992 -0.554687,0.1875 -0.119933,0.07723 -0.230131,0.231177 -0.330078,0.46289 -0.09995,0.22206 -0.19521,0.487929 -0.285156,0.796875 -0.07996,0.308947 -0.154643,0.64278 -0.22461,1 -0.06994,0.357227 -0.129687,0.709074 -0.179687,1.056641 -0.04995,0.337913 -0.09109,0.655785 -0.121094,0.955078 -0.03,0.289633 -0.04492,0.527504 -0.04492,0.710938 0,0.33792 0.02055,0.693785 0.06055,1.070312 0.04997,0.376533 0.109727,0.758351 0.179687,1.144531 0.07996,0.37654 0.17521,0.748361 0.285157,1.115235 0.10994,0.35722 0.229435,0.695072 0.359375,1.013672 0.05001,0.11586 0.106082,0.237774 0.166015,0.363281 0.05997,0.125513 0.129031,0.241456 0.208985,0.347656 0.06997,0.09654 0.239905,0.178514 0.509765,0.246094 0.279847,0.05794 0.60479,0.109936 0.97461,0.158203 0.3798,0.03865 0.78507,0.07263 1.214843,0.101562 0.429787,0.01933 0.838716,0.0333 1.228516,0.04297 0.399787,0.0097 0.754613,0.01963 1.064453,0.0293 l 0.660157,0 c 0.389799,0 0.809998,0.006 1.259765,0.01563 0.449767,0.0097 0.89789,-0.01033 1.347656,-0.05859 0.449774,-0.04827 0.881229,-0.140224 1.291016,-0.27539 0.419787,-0.14482 0.778278,-0.362704 1.078125,-0.652344 0.04995,-0.04827 0.100391,-0.178218 0.150391,-0.390625 0.04995,-0.212407 0.09477,-0.46232 0.134765,-0.751953 0.04996,-0.2993 0.09109,-0.623144 0.121089,-0.97071 0.03993,-0.347567 0.06984,-0.675429 0.08984,-0.984375 0.03,-0.3186 0.04859,-0.598471 0.05859,-0.839844 0.02,-0.241367 0.03492,-0.411272 0.04492,-0.507813 0.01,-0.115853 0.01563,-0.231796 0.01563,-0.347656 l 0,-0.376953 c 0,-0.125507 -0.0056,-0.293453 -0.01563,-0.505859 -0.01,-0.212407 -0.02492,-0.444299 -0.04492,-0.695313 -0.01,-0.260673 -0.02859,-0.53056 -0.05859,-0.810547 -0.02,-0.27998 -0.04617,-0.545848 -0.07617,-0.796875 -0.02997,-0.25102 -0.06914,-0.472922 -0.119141,-0.666015 -0.03995,-0.20274 -0.08476,-0.358637 -0.134765,-0.464844 -0.05997,-0.125507 -0.211292,-0.239503 -0.451172,-0.345703 -0.23988,-0.106207 -0.529321,-0.204129 -0.869141,-0.291016 -0.329833,-0.08689 -0.688332,-0.158863 -1.078125,-0.216797 -0.389807,-0.06761 -0.774497,-0.121556 -1.154297,-0.160156 -0.379806,-0.04825 -0.734626,-0.08028 -1.064453,-0.09961 -0.319833,-0.01933 -0.575718,-0.0293 -0.765625,-0.0293 z m -24.542969,0.0293 -5.861328,0.02734 c 0.09993,1.853687 0.168985,3.69883 0.208985,5.533204 0.03995,1.834386 0.08672,3.677563 0.136718,5.53125 l 3.238282,0.08789 c 0.05997,-1.303373 0.134662,-2.596792 0.224609,-3.880859 0.09995,-1.29372 0.195203,-2.593111 0.285156,-3.896485 0.249874,0.598587 0.498174,1.192317 0.748047,1.78125 0.249867,0.588934 0.515069,1.178645 0.794922,1.767579 0.3798,0.801326 0.760812,1.596985 1.140625,2.388671 0.3798,0.782027 0.758865,1.573674 1.138672,2.375 0.299847,-0.0483 0.600551,-0.0863 0.90039,-0.115234 0.309841,-0.029 0.614216,-0.04297 0.914063,-0.04297 0.609687,0 1.22407,0.01397 1.84375,0.04297 0.01,-0.849607 0.01563,-1.685213 0.01563,-2.505859 0.01,-0.830294 0.01367,-1.669925 0.01367,-2.519531 0,-1.004087 -0.01492,-2.003621 -0.04492,-2.998047 -0.02996,-0.99442 -0.06547,-1.993961 -0.105469,-2.998047 l -3.027343,-0.347656 c 0.02,1.216486 0.04422,2.42392 0.07422,3.621093 0.04,1.197174 0.06617,2.398636 0.07617,3.605469 -0.289847,-0.753067 -0.579287,-1.500741 -0.86914,-2.244141 -0.289854,-0.753066 -0.55137,-1.510724 -0.78125,-2.273437 -0.159914,-0.50204 -0.329853,-0.995782 -0.509766,-1.478516 -0.169913,-0.49238 -0.354794,-0.978197 -0.554688,-1.460937 z m -7.945312,0.607422 c -1.099433,0.07723 -2.188132,0.145191 -3.267578,0.203125 -1.06944,0.04829 -2.148835,0.09226 -3.238282,0.130859 0.02,0.405493 0.03492,0.80935 0.04492,1.214844 0.02,0.39584 0.03859,0.797625 0.05859,1.203125 l 1.425781,0.173828 c 0.07,0.89788 0.133426,1.791461 0.19336,2.679687 0.06993,0.888227 0.129687,1.785826 0.179687,2.69336 l -0.972656,0.01367 c 0.03,0.47308 0.04859,0.940877 0.05859,1.404297 0.01,0.453766 0.01563,0.917551 0.01563,1.390624 l 5.382812,-0.08594 c -0.04996,-0.231713 -0.08547,-0.469578 -0.105469,-0.710937 -0.01,-0.241367 -0.01562,-0.48129 -0.01562,-0.722657 l 0,-0.86914 c -1e-6,-0.289634 0.01125,-0.575482 0.03125,-0.855469 l -1.529297,-0.0293 c -0.01,-0.405493 -0.02125,-0.801307 -0.03125,-1.1875 l 0,-1.201172 0,-1 c 0.01,-0.32826 0.02125,-0.66014 0.03125,-0.998047 l 1.664062,0.05664 c 0.02,-0.57928 0.02367,-1.157055 0.01367,-1.736328 -0.01,-0.588934 0.01055,-1.178645 0.06055,-1.767578 z m 19.550781,0.0293 c -0.579707,0 -1.154903,0.01 -1.724609,0.0293 -0.559714,0.0097 -1.129291,0.01768 -1.708985,0.02734 l 0,2.91211 0,1.289062 c 0,1.129593 -0.0056,2.253107 -0.01563,3.373047 -0.01,1.110273 -0.03984,2.231735 -0.08984,3.361328 l 3.943359,-0.130859 c 0,-0.724107 -0.02055,-1.44377 -0.06055,-2.158204 -0.03997,-0.724093 -0.109024,-1.447768 -0.208984,-2.171874 0.449773,-0.08689 0.899842,-0.154859 1.349609,-0.203126 0.459767,-0.05793 0.913515,-0.135875 1.363281,-0.232421 l -0.419921,-1.447266 -2.488282,-0.160156 -0.11914,-1.244141 c 0.859546,-0.07727 1.707308,-0.131223 2.546875,-0.160156 0.849566,-0.02897 1.710524,-0.06697 2.580078,-0.115234 0,-0.47308 -0.02991,-0.940877 -0.08984,-1.404297 -0.05001,-0.47308 -0.106082,-0.94283 -0.166016,-1.40625 -0.789593,-0.03859 -1.573915,-0.07256 -2.353515,-0.101563 -0.779594,-0.0386 -1.558291,-0.05664 -2.337891,-0.05664 z m 12.501953,3.228515 c 0.139934,0 0.380877,0.006 0.720703,0.01563 0.33982,0 0.689015,0.01404 1.048829,0.04297 0.369806,0.02897 0.706012,0.07695 1.005859,0.144531 0.30984,0.06758 0.504018,0.159531 0.583984,0.275391 0.109927,0.164126 0.175313,0.358025 0.195313,0.580078 0.02,0.212407 0.0293,0.414335 0.0293,0.607422 0,0.106206 -0.0056,0.280117 -0.01563,0.521484 0,0.231707 -0.0093,0.477608 -0.0293,0.738281 -0.02,0.25102 -0.04984,0.486925 -0.08984,0.708985 -0.03995,0.212406 -0.09039,0.352342 -0.150391,0.419922 -0.07997,0.08689 -0.259209,0.164842 -0.539062,0.232421 -0.26986,0.05794 -0.570557,0.11189 -0.900391,0.160157 -0.319833,0.0386 -0.629841,0.0666 -0.929687,0.08594 -0.289847,0.01933 -0.493341,0.0293 -0.613282,0.0293 l -0.375,0 c -0.169906,-0.0097 -0.369729,-0.01963 -0.599609,-0.0293 -0.219893,-0.01927 -0.44958,-0.03926 -0.689453,-0.05859 -0.239873,-0.01933 -0.469566,-0.04333 -0.689453,-0.07227 -0.209893,-0.03865 -0.391096,-0.07663 -0.541016,-0.115235 -0.149913,-0.03862 -0.239531,-0.08259 -0.269531,-0.130859 -0.04995,-0.06758 -0.08914,-0.173533 -0.119141,-0.318359 -0.02,-0.144814 -0.04055,-0.298758 -0.06055,-0.462891 -0.02,-0.164127 -0.03492,-0.324042 -0.04492,-0.478515 l 0,-0.347657 c 0,-0.08689 0.0056,-0.226828 0.01563,-0.419922 0.01,-0.20274 0.02492,-0.41064 0.04492,-0.623047 0.02993,-0.222053 0.05984,-0.423988 0.08984,-0.607421 0.04001,-0.1931 0.0885,-0.323045 0.148438,-0.390625 0.05997,-0.08689 0.220602,-0.158864 0.480469,-0.216797 0.259866,-0.0676 0.539997,-0.121556 0.839843,-0.160157 0.30984,-0.04825 0.599274,-0.08223 0.869141,-0.101562 0.279853,-0.01933 0.474044,-0.0293 0.583984,-0.0293 z" style="font-style:normal;font-variant:normal;font-weight:bold;font-stretch:normal;font-size:medium;line-height:100%;font-family:Raleway;-inkscape-font-specification:'Raleway, Bold';text-align:center;writing-mode:lr-tb;text-anchor:middle;fill:#fdffff;fill-opacity:1;fill-rule:nonzero;stroke:none;stroke-width:25.08323669;stroke-linecap:round;stroke-linejoin:round;stroke-miterlimit:4;stroke-dasharray:none;stroke-dashoffset:0;stroke-opacity:1" inkscape:connector-curvature="0"/>
    </g>
  </g>
</svg>